<?xml version="1.0" encoding="UTF-8" standalone="no"?>
<svg
  version="1.1"
  width="1080"
  height="810"
  viewBox="0 0 1080 810"
  xmlns="http://www.w3.org/2000/svg"
  xmlns:svg="http://www.w3.org/2000/svg">
  <path
     style="fill:none;stroke:#ff6600;stroke-width:10;stroke-linecap:butt;stroke-linejoin:miter;stroke-opacity:1;stroke-miterlimit:4;stroke-dasharray:none"
     d="m 373.80879,540.13256 c 0,0 -91.71793,-12.49815 -97.936,-14.52483 -6.21807,-2.02669 -11.86114,-7.48357 -11.86114,-7.48357 0,0 -14.75502,-4.97958 -14.27818,-10.21196 0.47684,-5.23238 8.7909,-220.81622 8.7909,-220.81622 0,0 2.07489,-5.3999 5.18456,-5.65095 3.10967,-0.25105 4.96987,0.28618 4.96987,0.28618 l 1.70712,-68.74155 c 0,0 0.26134,-10.54223 10.5366,-10.05951 10.27526,0.48272 84.02524,8.83991 84.02524,8.83991 l 2.30234,-3.96816 44.33768,5.44536 1.32211,4.08004 25.97479,1.9733 -9.80315,-30.75751 16.96263,-8.35795 -14.26291,-27.42333 31.89235,-2.09527 0.96544,-35.66836 33.80663,1.08942 28.0341,-14.54935 38.77411,-57.216656 39.8427,32.381068 32.29434,-15.614618 19.08897,42.796486 35.73338,-19.996097 7.2948,42.166097 17.72979,17.25631 62.03144,-34.12337 -1.28104,51.63142 13.86181,-1.97645 0.0674,31.00726 13.83941,-6.48086 -1.64826,34.86798 16.38016,12.81275 -29.80385,21.85599 60.96724,9.93887 c 0,0 11.00699,3.35796 10.95761,10.416 -0.0494,7.05803 -52.27486,312.65767 -52.27486,312.65767 0,0 -7.56453,18.88582 -25.24329,17.0066 -17.67876,-1.87922 -81.55357,-12.81202 -81.55357,-12.81202 0,0 -68.97463,99.4067 -164.06898,83.71511 C 444.37474,658.1362 386.55441,600.9827 373.80879,540.13256 Z"
  />
</svg>
