<?xml version="1.0" encoding="UTF-8" standalone="no"?>
<svg
  version="1.1"
  width="1080"
  height="810"
  viewBox="0 0 1080 810"
  xmlns="http://www.w3.org/2000/svg"
  xmlns:svg="http://www.w3.org/2000/svg">
  <path
     style="fill:none;stroke:#ff6600;stroke-width:10;stroke-linecap:butt;stroke-linejoin:miter;stroke-miterlimit:4;stroke-dasharray:none;stroke-opacity:1"
     d="m 272.22351,621.15781 -9.90225,-293.42888 c 0,0 14.82129,-33.21179 53.51318,-37.90709 38.69188,-4.6953 175.56363,-16.84473 175.56363,-16.84473 l 3.57554,-172.984756 c 0,0 17.22904,-25.302837 51.5486,-24.591488 34.31955,0.711348 76.48592,12.88874 76.9351,24.014931 0.44919,11.126193 -16.43072,164.046883 -16.43072,164.046883 l 40.76194,-4.61472 c 0,0 50.66636,3.14974 63.52237,22.53528 12.85601,19.38554 172.05332,248.08128 172.05332,248.08128 0,0 4.05203,19.38234 0.62185,31.95497 -3.43019,12.57263 -9.42312,38.64767 -9.42312,38.64767 0,0 -11.32382,31.67479 -13.96678,34.52982 -2.64295,2.85503 -17.26598,29.52669 -19.88785,31.50944 -2.62186,1.98275 -9.96996,22.33247 -24.63599,27.33875 -14.66603,5.00628 -425.67826,92.32297 -425.67826,92.32297 0,0 -40.46362,4.81197 -53.53492,-4.6037 -13.07129,-9.41568 -27.13249,-25.6508 -27.13249,-25.6508 0,0 -13.01138,-22.68376 -16.42451,-28.45388 -17.26706,-35.76231 -25.20718,-64.08938 -21.07864,-105.90195 z"
  />
</svg>
