<?xml version="1.0" encoding="UTF-8" standalone="no"?>
<!-- Created with Inkscape (http://www.inkscape.org/) -->

<svg
  version="1.1"
  width="1080"
  height="810"
  viewBox="0 0 1080 810"
  xmlns="http://www.w3.org/2000/svg"
  xmlns:svg="http://www.w3.org/2000/svg">
  <path
    style="fill:none;stroke:#ff6600;stroke-width:10;stroke-linecap:butt;stroke-linejoin:miter;stroke-miterlimit:4;stroke-dasharray:none;stroke-opacity:1"
    d="m 656.7278,672.81434 -358.31195,10.8446 c 0,0 -3.37616,1.35564 -3.2281,-7.75126 0.14805,-9.1069 6.44347,-564.89073 6.44347,-564.89073 0,0 -0.59604,-5.64156 4.24914,-6.3795 152.18855,-7.744757 293.54301,-14.987262 439.67349,-23.395613 0,0 11.87967,-1.449434 12.93288,9.931425 1.0532,11.380858 50.45526,562.149718 50.45526,562.149718 0,0 2.10344,10.90797 -6.11838,11.97971 -8.22181,1.07174 -119.14096,3.70027 -119.14096,3.70027 l 71.77387,-311.08271 c 0,0 -4.9549,-7.54591 -10.442,-7.76879 -5.48709,-0.22288 -11.18342,-0.55328 -13.32676,9.03824 -2.14334,9.59151 -83.95864,354.88746 -83.95864,354.88746 0,0 -2.61582,15.26185 -2.25247,20.29945 0.36334,5.0376 4.21487,27.91948 4.21487,27.91948 0,0 8.68962,-12.15558 13.94976,-22.43393 5.26014,-10.27836 10.98541,-30.55417 11.72729,-33.08899 0.74188,-2.53481 7.79276,-35.06589 7.79276,-35.06589"
  />
</svg>
